<svg xmlns="http://www.w3.org/2000/svg" xmlns:xlink="http://www.w3.org/1999/xlink" width="841.375" height="551.289" viewBox="0 0 841.375 551.289"><defs><clipPath id="a"><path d="M207.023,822.467h-6.948l8.5-141.188h8.838L207.023,822.467Zm127.459,0H326.9L316.509,681.279h9.47Z" transform="translate(-200.075 -681.279)" fill="none" clip-rule="evenodd"/></clipPath><linearGradient id="b" x1="0.293" y1="0.464" x2="0.878" y2="0.549" gradientUnits="objectBoundingBox"><stop offset="0" stop-color="#4966a7"/><stop offset="1" stop-color="#2c4b88"/></linearGradient><linearGradient id="c" x1="0.824" y1="0.492" x2="-0.065" y2="0.543" gradientUnits="objectBoundingBox"><stop offset="0" stop-color="#4db58b"/><stop offset="1" stop-color="#008867"/></linearGradient><linearGradient id="d" x1="0.733" y1="0.695" x2="0.221" y2="0.336" gradientUnits="objectBoundingBox"><stop offset="0" stop-color="#31508e"/><stop offset="1" stop-color="#12295c"/></linearGradient><clipPath id="e"><path d="M360.655,876.97h-5.013L370.38,632.284h8.287L360.655,876.97Zm234.954,0h-6.1l-18.01-244.686h9.381Z" transform="translate(-355.642 -632.284)" fill="none" clip-rule="evenodd"/></clipPath></defs><g transform="translate(-76.287 -486.083)"><path d="M449.115,644.453l-3.688-12.465c-46.2,17.56-79.953,11.05-94.892-25.222-6.16-14.952-28.9-2.3-22.36,15.116C349.823,679.519,421.719,664.836,449.115,644.453Z" transform="translate(276.816 124.64)" fill="#23325c" fill-rule="evenodd"/><g transform="translate(335.693 896.182)"><g transform="translate(0)"><g clip-path="url(#a)"><rect width="134.407" height="90.133" transform="translate(-0.001 51.055)" fill="#742aae"/><rect width="134.407" height="0.267" transform="translate(-0.001 50.877)" fill="#742aae"/><rect width="134.407" height="0.268" transform="translate(-0.001 50.698)" fill="#742aad"/><rect width="134.407" height="0.268" transform="translate(-0.001 50.52)" fill="#732aad"/><rect width="134.407" height="0.267" transform="translate(-0.001 50.342)" fill="#7329ad"/><rect width="134.407" height="0.267" transform="translate(-0.001 50.164)" fill="#7329ac"/><rect width="134.407" height="0.268" transform="translate(-0.001 49.985)" fill="#7329ac"/><rect width="134.407" height="0.268" transform="translate(-0.001 49.807)" fill="#7229ac"/><rect width="134.407" height="0.267" transform="translate(-0.001 49.629)" fill="#7229ab"/><rect width="134.407" height="0.267" transform="translate(-0.001 49.45)" fill="#7229ab"/><rect width="134.407" height="0.268" transform="translate(-0.001 49.272)" fill="#7229ab"/><rect width="134.407" height="0.268" transform="translate(-0.001 49.093)" fill="#7128ab"/><rect width="134.407" height="0.267" transform="translate(-0.001 48.916)" fill="#7128aa"/><rect width="134.407" height="0.268" transform="translate(-0.001 48.737)" fill="#7128aa"/><rect width="134.407" height="0.268" transform="translate(-0.001 48.559)" fill="#7128aa"/><rect width="134.407" height="0.267" transform="translate(-0.001 48.381)" fill="#7028a9"/><rect width="134.407" height="0.267" transform="translate(-0.001 48.202)" fill="#7028a9"/><rect width="134.407" height="0.268" transform="translate(-0.001 48.024)" fill="#7028a9"/><rect width="134.407" height="0.268" transform="translate(-0.001 47.846)" fill="#7028a8"/><rect width="134.407" height="0.267" transform="translate(-0.001 47.668)" fill="#6f27a8"/><rect width="134.407" height="0.267" transform="translate(-0.001 47.489)" fill="#6f27a8"/><rect width="134.407" height="0.268" transform="translate(-0.001 47.311)" fill="#6f27a7"/><rect width="134.407" height="0.268" transform="translate(-0.001 47.133)" fill="#6f27a7"/><rect width="134.407" height="0.267" transform="translate(-0.001 46.955)" fill="#6e27a7"/><rect width="134.407" height="0.268" transform="translate(-0.001 46.776)" fill="#6e27a6"/><rect width="134.407" height="0.268" transform="translate(-0.001 46.598)" fill="#6e27a6"/><rect width="134.407" height="0.267" transform="translate(-0.001 46.42)" fill="#6e26a6"/><rect width="134.407" height="0.267" transform="translate(-0.001 46.241)" fill="#6e26a5"/><rect width="134.407" height="0.268" transform="translate(-0.001 46.063)" fill="#6d26a5"/><rect width="134.407" height="0.268" transform="translate(-0.001 45.884)" fill="#6d26a5"/><rect width="134.407" height="0.267" transform="translate(-0.001 45.707)" fill="#6d26a4"/><rect width="134.407" height="0.267" transform="translate(-0.001 45.528)" fill="#6d26a4"/><rect width="134.407" height="0.268" transform="translate(-0.001 45.35)" fill="#6c26a4"/><rect width="134.407" height="0.268" transform="translate(-0.001 45.171)" fill="#6c25a4"/><rect width="134.407" height="0.267" transform="translate(-0.001 44.994)" fill="#6c25a3"/><rect width="134.407" height="0.268" transform="translate(-0.001 44.815)" fill="#6c25a3"/><rect width="134.407" height="0.268" transform="translate(-0.001 44.637)" fill="#6b25a3"/><rect width="134.407" height="0.267" transform="translate(-0.001 44.459)" fill="#6b25a2"/><rect width="134.407" height="0.267" transform="translate(-0.001 44.28)" fill="#6b25a2"/><rect width="134.407" height="0.268" transform="translate(-0.001 44.102)" fill="#6b25a2"/><rect width="134.407" height="0.268" transform="translate(-0.001 43.924)" fill="#6a25a1"/><rect width="134.407" height="0.267" transform="translate(-0.001 43.746)" fill="#6a24a1"/><rect width="134.407" height="0.267" transform="translate(-0.001 43.567)" fill="#6a24a1"/><rect width="134.407" height="0.268" transform="translate(-0.001 43.389)" fill="#6a24a0"/><rect width="134.407" height="0.268" transform="translate(-0.001 43.21)" fill="#6924a0"/><rect width="134.407" height="0.267" transform="translate(-0.001 43.033)" fill="#6924a0"/><rect width="134.407" height="0.268" transform="translate(-0.001 42.854)" fill="#69249f"/><rect width="134.407" height="0.268" transform="translate(-0.001 42.676)" fill="#69249f"/><rect width="134.407" height="0.267" transform="translate(-0.001 42.498)" fill="#69239f"/><rect width="134.407" height="0.267" transform="translate(-0.001 42.319)" fill="#68239e"/><rect width="134.407" height="0.268" transform="translate(-0.001 42.141)" fill="#68239e"/><rect width="134.407" height="0.268" transform="translate(-0.001 41.962)" fill="#68239e"/><rect width="134.407" height="0.267" transform="translate(-0.001 41.785)" fill="#68239d"/><rect width="134.407" height="0.267" transform="translate(-0.001 41.606)" fill="#67239d"/><rect width="134.407" height="0.268" transform="translate(-0.001 41.428)" fill="#67239d"/><rect width="134.407" height="0.268" transform="translate(-0.001 41.249)" fill="#67229d"/><rect width="134.407" height="0.267" transform="translate(-0.001 41.072)" fill="#67229c"/><rect width="134.407" height="0.268" transform="translate(-0.001 40.893)" fill="#66229c"/><rect width="134.407" height="0.268" transform="translate(-0.001 40.715)" fill="#66229c"/><rect width="134.407" height="0.267" transform="translate(-0.001 40.537)" fill="#66229b"/><rect width="134.407" height="0.267" transform="translate(-0.001 40.358)" fill="#66229b"/><rect width="134.407" height="0.268" transform="translate(-0.001 40.18)" fill="#65229b"/><rect width="134.407" height="0.268" transform="translate(-0.001 40.001)" fill="#65219a"/><rect width="134.407" height="0.267" transform="translate(-0.001 39.824)" fill="#65219a"/><rect width="134.407" height="0.268" transform="translate(-0.001 39.645)" fill="#65219a"/><rect width="134.407" height="0.268" transform="translate(-0.001 39.467)" fill="#642199"/><rect width="134.407" height="0.268" transform="translate(-0.001 39.288)" fill="#642199"/><rect width="134.407" height="0.267" transform="translate(-0.001 39.11)" fill="#642199"/><rect width="134.407" height="0.268" transform="translate(-0.001 38.932)" fill="#642198"/><rect width="134.407" height="0.268" transform="translate(-0.001 38.754)" fill="#632198"/><rect width="134.407" height="0.267" transform="translate(-0.001 38.576)" fill="#632098"/><rect width="134.407" height="0.267" transform="translate(-0.001 38.397)" fill="#632097"/><rect width="134.407" height="0.268" transform="translate(-0.001 38.219)" fill="#632097"/><rect width="134.407" height="0.268" transform="translate(-0.001 38.04)" fill="#632097"/><rect width="134.407" height="0.267" transform="translate(-0.001 37.863)" fill="#622096"/><rect width="134.407" height="0.268" transform="translate(-0.001 37.684)" fill="#622096"/><rect width="134.407" height="0.268" transform="translate(-0.001 37.506)" fill="#622096"/><rect width="134.407" height="0.268" transform="translate(-0.001 37.327)" fill="#621f96"/><rect width="134.407" height="0.267" transform="translate(-0.001 37.149)" fill="#611f95"/><rect width="134.407" height="0.268" transform="translate(-0.001 36.971)" fill="#611f95"/><rect width="134.407" height="0.268" transform="translate(-0.001 36.792)" fill="#611f95"/><rect width="134.407" height="0.267" transform="translate(-0.001 36.615)" fill="#611f94"/><rect width="134.407" height="0.267" transform="translate(-0.001 36.436)" fill="#601f94"/><rect width="134.407" height="0.268" transform="translate(-0.001 36.258)" fill="#601f94"/><rect width="134.407" height="0.268" transform="translate(-0.001 36.079)" fill="#601e93"/><rect width="134.407" height="0.267" transform="translate(-0.001 35.901)" fill="#601e93"/><rect width="134.407" height="0.268" transform="translate(-0.001 35.723)" fill="#5f1e93"/><rect width="134.407" height="0.268" transform="translate(-0.001 35.545)" fill="#5f1e92"/><rect width="134.407" height="0.268" transform="translate(-0.001 35.366)" fill="#5f1e92"/><rect width="134.407" height="0.267" transform="translate(-0.001 35.188)" fill="#5f1e92"/><rect width="134.407" height="0.268" transform="translate(-0.001 35.01)" fill="#5e1e91"/><rect width="134.407" height="0.268" transform="translate(-0.001 34.831)" fill="#5e1e91"/><rect width="134.407" height="0.267" transform="translate(-0.001 34.654)" fill="#5e1d91"/><rect width="134.407" height="0.267" transform="translate(-0.001 34.475)" fill="#5e1d90"/><rect width="134.407" height="0.268" transform="translate(-0.001 34.297)" fill="#5e1d90"/><rect width="134.407" height="0.268" transform="translate(-0.001 34.118)" fill="#5d1d90"/><rect width="134.407" height="0.267" transform="translate(-0.001 33.94)" fill="#5d1d90"/><rect width="134.407" height="0.268" transform="translate(-0.001 33.762)" fill="#5d1d8f"/><rect width="134.407" height="0.268" transform="translate(-0.001 33.583)" fill="#5d1d8f"/><rect width="134.407" height="0.268" transform="translate(-0.001 33.405)" fill="#5c1c8f"/><rect width="134.407" height="0.267" transform="translate(-0.001 33.227)" fill="#5c1c8e"/><rect width="134.407" height="0.268" transform="translate(-0.001 33.049)" fill="#5c1c8e"/><rect width="134.407" height="0.268" transform="translate(-0.001 32.87)" fill="#5c1c8e"/><rect width="134.407" height="0.267" transform="translate(-0.001 32.692)" fill="#5b1c8d"/><rect width="134.407" height="0.267" transform="translate(-0.001 32.514)" fill="#5b1c8d"/><rect width="134.407" height="0.268" transform="translate(-0.001 32.336)" fill="#5b1c8d"/><rect width="134.407" height="0.268" transform="translate(-0.001 32.157)" fill="#5b1b8c"/><rect width="134.407" height="0.267" transform="translate(-0.001 31.979)" fill="#5a1b8c"/><rect width="134.407" height="0.268" transform="translate(-0.001 31.801)" fill="#5a1b8c"/><rect width="134.407" height="0.268" transform="translate(-0.001 31.622)" fill="#5a1b8b"/><rect width="134.407" height="0.268" transform="translate(-0.001 31.444)" fill="#5a1b8b"/><rect width="134.407" height="0.267" transform="translate(-0.001 31.266)" fill="#591b8b"/><rect width="134.407" height="0.268" transform="translate(-0.001 31.088)" fill="#591b8a"/><rect width="134.407" height="0.268" transform="translate(-0.001 30.909)" fill="#591a8a"/><rect width="134.407" height="0.267" transform="translate(-0.001 30.732)" fill="#591a8a"/><rect width="134.407" height="0.267" transform="translate(-0.001 30.553)" fill="#581a89"/><rect width="134.407" height="0.268" transform="translate(-0.001 30.375)" fill="#581a89"/><rect width="134.407" height="0.268" transform="translate(-0.001 30.196)" fill="#581a89"/><rect width="134.407" height="0.267" transform="translate(-0.001 30.018)" fill="#581a89"/><rect width="134.407" height="0.268" transform="translate(-0.001 29.84)" fill="#581a88"/><rect width="134.407" height="0.268" transform="translate(-0.001 29.661)" fill="#571a88"/><rect width="134.407" height="0.268" transform="translate(-0.001 29.483)" fill="#571988"/><rect width="134.407" height="0.267" transform="translate(-0.001 29.305)" fill="#571987"/><rect width="134.407" height="0.268" transform="translate(-0.001 29.127)" fill="#571987"/><rect width="134.407" height="0.268" transform="translate(-0.001 28.948)" fill="#561987"/><rect width="134.407" height="0.267" transform="translate(-0.001 28.77)" fill="#561986"/><rect width="134.407" height="0.267" transform="translate(-0.001 28.592)" fill="#561986"/><rect width="134.407" height="0.268" transform="translate(-0.001 28.413)" fill="#561986"/><rect width="134.407" height="0.268" transform="translate(-0.001 28.235)" fill="#551885"/><rect width="134.407" height="0.267" transform="translate(-0.001 28.057)" fill="#551885"/><rect width="134.407" height="0.268" transform="translate(-0.001 27.879)" fill="#551885"/><rect width="134.407" height="0.268" transform="translate(-0.001 27.7)" fill="#551884"/><rect width="134.407" height="0.267" transform="translate(-0.001 27.523)" fill="#541884"/><rect width="134.407" height="0.267" transform="translate(-0.001 27.344)" fill="#541884"/><rect width="134.407" height="0.268" transform="translate(-0.001 27.166)" fill="#541883"/><rect width="134.407" height="0.268" transform="translate(-0.001 26.987)" fill="#541783"/><rect width="134.407" height="0.267" transform="translate(-0.001 26.809)" fill="#531783"/><rect width="134.407" height="0.267" transform="translate(-0.001 26.631)" fill="#531782"/><rect width="134.407" height="0.268" transform="translate(-0.001 26.453)" fill="#531782"/><rect width="134.407" height="0.268" transform="translate(-0.001 26.274)" fill="#531782"/><rect width="134.407" height="0.267" transform="translate(-0.001 26.096)" fill="#531782"/><rect width="134.407" height="0.268" transform="translate(-0.001 25.918)" fill="#521781"/><rect width="134.407" height="0.268" transform="translate(-0.001 25.739)" fill="#521781"/><rect width="134.407" height="0.267" transform="translate(-0.001 25.561)" fill="#521681"/><rect width="134.407" height="0.267" transform="translate(-0.001 25.383)" fill="#521680"/><rect width="134.407" height="0.268" transform="translate(-0.001 25.204)" fill="#511680"/><rect width="134.407" height="0.268" transform="translate(-0.001 25.026)" fill="#511680"/><rect width="134.407" height="0.267" transform="translate(-0.001 24.848)" fill="#511680"/><rect width="134.407" height="0.267" transform="translate(-0.001 24.67)" fill="#511680"/><rect width="134.407" height="0.268" transform="translate(-0.001 24.491)" fill="#501680"/><rect width="134.407" height="0.268" transform="translate(-0.001 24.313)" fill="#50157f"/><rect width="134.407" height="0.267" transform="translate(-0.001 24.135)" fill="#50157f"/><rect width="134.407" height="0.268" transform="translate(-0.001 23.957)" fill="#50157f"/><rect width="134.407" height="0.268" transform="translate(-0.001 23.778)" fill="#4f157e"/><rect width="134.407" height="0.267" transform="translate(-0.001 23.6)" fill="#4f157e"/><rect width="134.407" height="0.267" transform="translate(-0.001 23.422)" fill="#4f157e"/><rect width="134.407" height="0.268" transform="translate(-0.001 23.244)" fill="#4f157d"/><rect width="134.407" height="0.268" transform="translate(-0.001 23.065)" fill="#4e147d"/><rect width="134.407" height="0.267" transform="translate(-0.001 22.887)" fill="#4e147d"/><rect width="134.407" height="0.267" transform="translate(-0.001 22.709)" fill="#4e147c"/><rect width="134.407" height="0.268" transform="translate(-0.001 22.53)" fill="#4e147c"/><rect width="134.407" height="0.268" transform="translate(-0.001 22.352)" fill="#4d147c"/><rect width="134.407" height="0.267" transform="translate(-0.001 22.174)" fill="#4d147c"/><rect width="134.407" height="0.268" transform="translate(-0.001 21.996)" fill="#4d147b"/><rect width="134.407" height="0.268" transform="translate(-0.001 21.817)" fill="#4d137b"/><rect width="134.407" height="0.267" transform="translate(-0.001 21.639)" fill="#4d137b"/><rect width="134.407" height="0.267" transform="translate(-0.001 21.461)" fill="#4c137a"/><rect width="134.407" height="0.268" transform="translate(-0.001 21.282)" fill="#4c137a"/><rect width="134.407" height="0.268" transform="translate(-0.001 21.104)" fill="#4c137a"/><rect width="134.407" height="0.267" transform="translate(-0.001 20.926)" fill="#4c1379"/><rect width="134.407" height="0.267" transform="translate(-0.001 20.748)" fill="#4b1379"/><rect width="134.407" height="0.268" transform="translate(-0.001 20.569)" fill="#4b1379"/><rect width="134.407" height="0.268" transform="translate(-0.001 20.391)" fill="#4b1278"/><rect width="134.407" height="0.267" transform="translate(-0.001 20.213)" fill="#4b1278"/><rect width="134.407" height="0.268" transform="translate(-0.001 20.035)" fill="#4a1278"/><rect width="134.407" height="0.268" transform="translate(-0.001 19.856)" fill="#4a1277"/><rect width="134.407" height="0.267" transform="translate(-0.001 19.678)" fill="#4a1277"/><rect width="134.407" height="0.267" transform="translate(-0.001 19.5)" fill="#4a1277"/><rect width="134.407" height="0.268" transform="translate(-0.001 19.321)" fill="#491276"/><rect width="134.407" height="0.268" transform="translate(-0.001 19.143)" fill="#491176"/><rect width="134.407" height="0.267" transform="translate(-0.001 18.965)" fill="#491176"/><rect width="134.407" height="0.267" transform="translate(-0.001 18.787)" fill="#491176"/><rect width="134.407" height="0.268" transform="translate(-0.001 18.608)" fill="#481175"/><rect width="134.407" height="0.268" transform="translate(-0.001 18.43)" fill="#481175"/><rect width="134.407" height="0.267" transform="translate(-0.001 18.252)" fill="#481175"/><rect width="134.407" height="0.268" transform="translate(-0.001 18.073)" fill="#481174"/><rect width="134.407" height="0.268" transform="translate(-0.001 17.895)" fill="#481074"/><rect width="134.407" height="0.267" transform="translate(-0.001 17.717)" fill="#471074"/><rect width="134.407" height="0.267" transform="translate(-0.001 17.539)" fill="#471073"/><rect width="134.407" height="0.268" transform="translate(-0.001 17.36)" fill="#471073"/><rect width="134.407" height="0.268" transform="translate(-0.001 17.182)" fill="#471073"/><rect width="134.407" height="0.267" transform="translate(-0.001 17.004)" fill="#461072"/><rect width="134.407" height="0.267" transform="translate(-0.001 16.826)" fill="#461072"/><rect width="134.407" height="0.268" transform="translate(-0.001 16.647)" fill="#461072"/><rect width="134.407" height="0.268" transform="translate(-0.001 16.469)" fill="#460f71"/><rect width="134.407" height="0.267" transform="translate(-0.001 16.291)" fill="#450f71"/><rect width="134.407" height="0.268" transform="translate(-0.001 16.112)" fill="#450f71"/><rect width="134.407" height="0.268" transform="translate(-0.001 15.934)" fill="#450f70"/><rect width="134.407" height="0.267" transform="translate(-0.001 15.756)" fill="#450f70"/><rect width="134.407" height="0.267" transform="translate(-0.001 15.578)" fill="#440f70"/><rect width="134.407" height="0.268" transform="translate(-0.001 15.399)" fill="#440f6f"/><rect width="134.407" height="0.268" transform="translate(-0.001 15.221)" fill="#440e6f"/><rect width="134.407" height="0.267" transform="translate(-0.001 15.043)" fill="#440e6f"/><rect width="134.407" height="0.268" transform="translate(-0.001 14.864)" fill="#430e6f"/><rect width="134.407" height="0.268" transform="translate(-0.001 14.686)" fill="#430e6e"/><rect width="134.407" height="0.268" transform="translate(-0.001 14.508)" fill="#430e6e"/><rect width="134.407" height="0.267" transform="translate(-0.001 14.33)" fill="#430e6e"/><rect width="134.407" height="0.268" transform="translate(-0.001 14.151)" fill="#420e6d"/><rect width="134.407" height="0.268" transform="translate(-0.001 13.973)" fill="#420d6d"/><rect width="134.407" height="0.267" transform="translate(-0.001 13.795)" fill="#420d6d"/><rect width="134.407" height="0.267" transform="translate(-0.001 13.617)" fill="#420d6c"/><rect width="134.407" height="0.268" transform="translate(-0.001 13.438)" fill="#420d6c"/><rect width="134.407" height="0.268" transform="translate(-0.001 13.26)" fill="#410d6c"/><rect width="134.407" height="0.267" transform="translate(-0.001 13.082)" fill="#410d6b"/><rect width="134.407" height="0.268" transform="translate(-0.001 12.903)" fill="#410d6b"/><rect width="134.407" height="0.268" transform="translate(-0.001 12.725)" fill="#410c6b"/><rect width="134.407" height="0.268" transform="translate(-0.001 12.547)" fill="#400c6a"/><rect width="134.407" height="0.267" transform="translate(-0.001 12.369)" fill="#400c6a"/><rect width="134.407" height="0.268" transform="translate(-0.001 12.19)" fill="#400c6a"/><rect width="134.407" height="0.268" transform="translate(-0.001 12.012)" fill="#400c69"/><rect width="134.407" height="0.267" transform="translate(-0.001 11.834)" fill="#3f0c69"/><rect width="134.407" height="0.267" transform="translate(-0.001 11.656)" fill="#3f0c69"/><rect width="134.407" height="0.268" transform="translate(-0.001 11.477)" fill="#3f0c68"/><rect width="134.407" height="0.268" transform="translate(-0.001 11.299)" fill="#3f0b68"/><rect width="134.407" height="0.267" transform="translate(-0.001 11.121)" fill="#3e0b68"/><rect width="134.407" height="0.268" transform="translate(-0.001 10.943)" fill="#3e0b68"/><rect width="134.407" height="0.268" transform="translate(-0.001 10.764)" fill="#3e0b67"/><rect width="134.407" height="0.268" transform="translate(-0.001 10.586)" fill="#3e0b67"/><rect width="134.407" height="0.267" transform="translate(-0.001 10.408)" fill="#3d0b67"/><rect width="134.407" height="0.268" transform="translate(-0.001 10.229)" fill="#3d0b66"/><rect width="134.407" height="0.268" transform="translate(-0.001 10.051)" fill="#3d0a66"/><rect width="134.407" height="0.267" transform="translate(-0.001 9.873)" fill="#3d0a66"/><rect width="134.407" height="0.267" transform="translate(-0.001 9.695)" fill="#3d0a65"/><rect width="134.407" height="0.268" transform="translate(-0.001 9.516)" fill="#3c0a65"/><rect width="134.407" height="0.268" transform="translate(-0.001 9.338)" fill="#3c0a65"/><rect width="134.407" height="0.267" transform="translate(-0.001 9.16)" fill="#3c0a64"/><rect width="134.407" height="0.268" transform="translate(-0.001 8.981)" fill="#3c0a64"/><rect width="134.407" height="0.268" transform="translate(-0.001 8.803)" fill="#3b0964"/><rect width="134.407" height="0.268" transform="translate(-0.001 8.625)" fill="#3b0963"/><rect width="134.407" height="0.267" transform="translate(-0.001 8.447)" fill="#3b0963"/><rect width="134.407" height="0.268" transform="translate(-0.001 8.268)" fill="#3b0963"/><rect width="134.407" height="0.268" transform="translate(-0.001 8.09)" fill="#3a0962"/><rect width="134.407" height="0.267" transform="translate(-0.001 7.912)" fill="#3a0962"/><rect width="134.407" height="0.267" transform="translate(-0.001 7.734)" fill="#3a0962"/><rect width="134.407" height="0.268" transform="translate(-0.001 7.555)" fill="#3a0961"/><rect width="134.407" height="0.268" transform="translate(-0.001 7.377)" fill="#390861"/><rect width="134.407" height="0.267" transform="translate(-0.001 7.199)" fill="#390861"/><rect width="134.407" height="0.268" transform="translate(-0.001 7.02)" fill="#390861"/><rect width="134.407" height="0.268" transform="translate(-0.001 6.842)" fill="#390860"/><rect width="134.407" height="0.268" transform="translate(-0.001 6.663)" fill="#380860"/><rect width="134.407" height="0.267" transform="translate(-0.001 6.486)" fill="#380860"/><rect width="134.407" height="0.268" transform="translate(-0.001 6.307)" fill="#38085f"/><rect width="134.407" height="0.268" transform="translate(-0.001 6.129)" fill="#38075f"/><rect width="134.407" height="0.267" transform="translate(-0.001 5.951)" fill="#37075f"/><rect width="134.407" height="0.267" transform="translate(-0.001 5.772)" fill="#37075e"/><rect width="134.407" height="5.861" transform="translate(-0.001 0.001)" fill="#37075e"/></g></g></g><g transform="translate(330.538 893.388)"><path d="M223.75,685.311l-.025-.376h0Z" transform="translate(-168.61 -674.417)" fill="#bfbfbe" fill-rule="evenodd"/><path d="M203.369,688.2h-.015l.182-3.261h0Z" transform="translate(-191.272 -674.417)" fill="#bfbfbe" fill-rule="evenodd"/><path d="M203.364,688.2h0l.171-3.261h.006Z" transform="translate(-191.265 -674.417)" fill="#0d1619" fill-rule="evenodd"/><path d="M201.415,687.149a3.6,3.6,0,1,1,0-7.193H333.048a3.6,3.6,0,1,1,0,7.193Z" transform="translate(-197.634 -679.956)" fill="#742aae" fill-rule="evenodd"/></g><path d="M291.725,624.723c20.338-18.448-16.166-33.106-22.761-23.218-24.122,36.167-54.12,41.321-55.337-2.56l-12.9.3C197.907,618.305,207.29,701.3,291.725,624.723Z" transform="translate(135.875 122.62)" fill="#058664" fill-rule="evenodd"/><path d="M153.045,761.867c1.479,3.447,3.209,5.4,6.308,8.369,12.736-4.85,52.848-34.578,59.078-40.548,4.088-6.633-3.061-14.8-1.227-24.018,1.375-7.349,6.287-23.739,3.893-27.115Z" transform="translate(83.301 211.873)" fill-rule="evenodd" fill="url(#b)"/><path d="M194.366,704.835c-.344,2.022-16.411,105.589-17.292,113.614a17.776,17.776,0,0,0,11.407,3.906c11.183-16.559,39.547-87.927,42.445-106.44,2.742-17.512,78.468,8.659,91.632-41.49-17.25,1.261-31.053-13.843-45.271-19.493-15.218,5.226-46.56,12.934-55.39,16.075C201.456,678.279,197.349,687.378,194.366,704.835Z" transform="translate(110.031 185.593)" fill="#4d6aa9" fill-rule="evenodd"/><path d="M247.408,604.085c-11.082,12.288-13.872,22.9-17.434,38.809,5.784,36.429-2.176,59.467-10.642,85.7,14.217,5.651,38.828,17.573,56.076,16.312,12.391-33.089,41.41-138.382-6.779-153.114C267.962,600.973,256.851,604.062,247.408,604.085Z" transform="translate(157.04 115.36)" fill-rule="evenodd" fill="url(#c)"/><path d="M299.133,635.2c20.7-18.046-8.338-44.84-22.761-23.218-24.124,36.169-65.529,34.458-63.419-13.386l-15.119.353C192.323,638.284,222.936,701.636,299.133,635.2Z" transform="translate(132.428 122.921)" fill="#0fd79e" fill-rule="evenodd"/><path d="M236.555,592.88c11.975,2.974,16.988-2.685,22.237,6.855,9.81-3.705,9.658,13.672,2.3,12.556l-.427,7.909c9.747-2.292,12.184-12.079,14.145-22.2,11.308-3.6,10.192-20.072-2.448-20.231,1.1-9.831-9.573-13.2-14.533-8.84-4.73-13.4-22.607-10.224-21.885,2.875C227.123,570.157,219.835,588.725,236.555,592.88Z" transform="translate(165.029 80.328)" fill="#2e2662" fill-rule="evenodd"/><path d="M173.876,738.166c-6.088-.619-8.864-3.868-8.057-9.977-5.877-2.043-13.154-3.783-18.163-6.944-9.32-5.881-4.73-9.335-14.916-4.115.809,10.932,14.326,21.329,23.42,27.14,1.662,1.544-1.352,1.379,5.439,7.212C167.19,749.375,171.379,744.709,173.876,738.166Z" transform="translate(60.715 251.936)" fill="#27365c" fill-rule="evenodd"/><g transform="translate(126.236 574.983)"><path d="M114.228,529.226h155.58a13.349,13.349,0,0,1,13.308,13.31v82.226l-22.5-17.586H114.228a13.349,13.349,0,0,1-13.308-13.31v-51.33A13.348,13.348,0,0,1,114.228,529.226Z" transform="translate(-100.92 -529.226)" fill="#742aae" fill-rule="evenodd"/><path d="M119.225,560.359a13.467,13.467,0,1,0-13.467-13.469A13.494,13.494,0,0,0,119.225,560.359Z" transform="translate(-95.538 -524.554)" fill="#fff" fill-rule="evenodd"/><rect width="121.662" height="12.811" rx="3.032" transform="translate(43.102 11.471)" fill="#fff"/><rect width="106.778" height="5.039" rx="1.192" transform="translate(50.544 33.055)" fill="#fff"/><rect width="106.778" height="5.039" rx="1.192" transform="translate(50.544 46.867)" fill="#fff"/><rect width="106.778" height="5.039" rx="1.192" transform="translate(50.544 60.678)" fill="#fff"/></g><path d="M204.326,738.939c-4.569,4.071-8.84,3.921-12.8-.8-5.475,2.953-11.675,7.142-17.389,8.7-10.632,2.9-10.076-2.818-13.11,8.217,8.606,6.789,25.4,3.847,35.831,1.067,2.26-.182.106,1.931,8.993.864C208.072,751.441,207.461,745.2,204.326,738.939Z" transform="translate(92.182 278.158)" fill="#27365c" fill-rule="evenodd"/><g transform="translate(323.693 658.869)"><path d="M198.409,572.19l14.878-3.143a5.071,5.071,0,0,1,6.008,3.9l8.086,38.292a5.059,5.059,0,0,1-.712,3.809l0,.006a5.049,5.049,0,0,1-3.192,2.188L208.6,620.385a5.071,5.071,0,0,1-6.008-3.9L194.5,578.191a5.056,5.056,0,0,1,.712-3.807l0-.006a5.041,5.041,0,0,1,3.19-2.188Zm15.41-.676-3.19.676-1.221,3.052-4.787,1.01-2.518-2.26-3.169.665a2.558,2.558,0,0,0-1.962,3.008l8.084,38.285a2.535,2.535,0,0,0,1.1,1.6l.006,0a2.52,2.52,0,0,0,1.9.363l14.888-3.146a2.555,2.555,0,0,0,1.962-3.008l-8.084-38.283a2.543,2.543,0,0,0-1.1-1.6l-.006,0A2.54,2.54,0,0,0,213.819,571.514Z" transform="translate(-194.394 -568.937)" fill="#001d3d" fill-rule="evenodd"/><rect width="11.725" height="6.971" transform="matrix(0.977, -0.212, 0.212, 0.977, 10.034, 9.603)" fill="#742aae"/><rect width="11.724" height="2.772" transform="matrix(0.977, -0.212, 0.212, 0.977, 11.78, 17.655)" fill="gray"/><rect width="11.725" height="2.773" transform="matrix(0.977, -0.212, 0.212, 0.977, 12.677, 21.797)" fill="gray"/><rect width="11.724" height="2.772" transform="matrix(0.977, -0.212, 0.212, 0.977, 13.575, 25.939)" fill="gray"/><path d="M198.446,573.859a2.475,2.475,0,1,1-1.893,2.943A2.475,2.475,0,0,1,198.446,573.859Z" transform="translate(-192.056 -563.525)" fill="#0fd79e" fill-rule="evenodd"/><rect width="11.724" height="6.971" transform="matrix(0.977, -0.212, 0.212, 0.977, 14.574, 30.545)" fill="#0fd79e"/><rect width="11.724" height="2.772" transform="matrix(0.977, -0.212, 0.212, 0.977, 16.319, 38.597)" fill="gray"/><rect width="11.725" height="2.773" transform="matrix(0.977, -0.212, 0.212, 0.977, 17.217, 42.739)" fill="gray"/><path d="M200.595,583.773a2.475,2.475,0,1,1-1.893,2.943A2.478,2.478,0,0,1,200.595,583.773Z" transform="translate(-189.666 -552.496)" fill="#742aae" fill-rule="evenodd"/></g><g transform="translate(78.162 805.783)"><rect width="77.239" height="14.111" transform="translate(13.506 160.588)" fill="#32599e"/><line y1="155.923" transform="translate(52.124 18.525)" fill="none" stroke="#51c8a6" stroke-linecap="round" stroke-miterlimit="22.926" stroke-width="3.75"/><path d="M123.592,693.026h0a9.263,9.263,0,1,0-9.261-9.263,9.265,9.265,0,0,0,9.261,9.263Z" transform="translate(-37.923 -598.421)" fill="none" stroke="#51c8a6" stroke-miterlimit="22.926" stroke-width="3.75" fill-rule="evenodd"/><path d="M102.837,716.815h.006a33.549,33.549,0,0,0,33.545-33.545h0" transform="translate(-50.713 -588.665)" fill="none" stroke="#51c8a6" stroke-linecap="round" stroke-miterlimit="22.926" stroke-width="3.75" fill-rule="evenodd"/><path d="M107.715,657.009a9.262,9.262,0,1,0-9.263-9.263,9.262,9.262,0,0,0,9.263,9.263Z" transform="translate(-55.591 -638.485)" fill="none" stroke="#51c8a6" stroke-miterlimit="22.926" stroke-width="3.75" fill-rule="evenodd"/><path d="M87.425,694.683a9.263,9.263,0,1,0-9.263-9.263,9.265,9.265,0,0,0,9.263,9.263Z" transform="translate(-78.162 -596.578)" fill="none" stroke="#51c8a6" stroke-miterlimit="22.926" stroke-width="3.75" fill-rule="evenodd"/><path d="M125.408,727.79a42.866,42.866,0,0,1-42.861-42.863" transform="translate(-73.284 -586.822)" fill="none" stroke="#51c8a6" stroke-linecap="round" stroke-miterlimit="22.926" stroke-width="3.75" fill-rule="evenodd"/><path d="M114.6,701.377a22.338,22.338,0,0,1-22.335-22.335" transform="translate(-62.475 -593.369)" fill="none" stroke="#51c8a6" stroke-linecap="round" stroke-miterlimit="22.926" stroke-width="3.75" fill-rule="evenodd"/><path d="M97.143,673.913a9.263,9.263,0,1,0-9.263-9.265,9.265,9.265,0,0,0,9.263,9.265Z" transform="translate(-67.352 -619.683)" fill="none" stroke="#51c8a6" stroke-miterlimit="22.926" stroke-width="3.75" fill-rule="evenodd"/><path d="M102.837,685.891h0a22.335,22.335,0,0,0,22.332-22.332v0" transform="translate(-50.713 -610.598)" fill="none" stroke="#51c8a6" stroke-linecap="round" stroke-miterlimit="22.926" stroke-width="3.75" fill-rule="evenodd"/><path d="M118.286,673.312h0a9.26,9.26,0,1,0-.006,0Z" transform="translate(-43.827 -620.351)" fill="none" stroke="#51c8a6" stroke-miterlimit="22.926" stroke-width="3.75" fill-rule="evenodd"/><line y1="31.45" transform="translate(29.791 54.229)" fill="none" stroke="#51c8a6" stroke-linecap="round" stroke-miterlimit="22.926" stroke-width="3.75"/><rect width="38.68" height="0.505" transform="translate(24.264 198.142)" fill="#e7e7e7"/><path d="M92.328,781.79h58.4l6.3-63.943h-71Z" transform="translate(-69.405 -550.201)" fill="#2166ad" fill-rule="evenodd"/><path d="M150.368,778.074h-58.4l-5.6-56.889h69.614l-1.917,19.446-.048.5Z" transform="translate(-69.042 -546.487)" fill="#7d9dd8" fill-rule="evenodd"/><rect width="77.239" height="14.111" transform="translate(13.506 160.588)" fill="#2166ad"/></g><path d="M322.063,610.232h0a8.081,8.081,0,0,0-6.506,8.541l5.6,60.688a6.636,6.636,0,0,0,7.852,6.022v0a8.081,8.081,0,0,0,6.506-8.54l-5.6-60.688A6.63,6.63,0,0,0,322.063,610.232Z" transform="translate(264.047 135.749)" fill="#111d22" fill-rule="evenodd"/><path d="M376.063,655.03v7.886h73l21.35-60.4-6.1-2.094-19.532,55.106Z" transform="translate(331.39 124.956)" fill="#001d3d" fill-rule="evenodd"/><path d="M347.839,598.183,326,626.265l-1.1,2.744c-.085.389-.313.94-.4,1.428-2.649,15.64,13.334,42.759,18.515,69.7,21.787,2.427,30.243,1.16,46.91-2.86l.2-29.329c-3.483-26.285,2.668-22.569,3.333-34.811.577-10.646-5.482-12.924-23.782-30.588C369.43,602.921,352.431,602.142,347.839,598.183Z" transform="translate(273.711 122.466)" fill-rule="evenodd" fill="url(#d)"/><path d="M405.828,679.508c-33.556,32.573-47.546,59.218-59.619,76.672l13.439,12.531c14.569-12.934,54.321-45.892,67.411-59.577l-4.48-22.934Z" transform="translate(298.18 212.933)" fill="#001933" fill-rule="evenodd"/><path d="M362.594,727.651a40.494,40.494,0,0,1-8.551-8.023c-4.267,6.2-17.685,14.136-21.057,22.8,3.078,4.449,4.371,2.636,6.559,4.833,2.3,5.182,4.531,14.164,27.808,23.655C373.158,761.456,343.559,749.337,362.594,727.651Z" transform="translate(283.471 257.563)" fill="#39548f" fill-rule="evenodd"/><path d="M428.514,647.995l15.116.073,4.393-34.083-23.646-.244Z" transform="translate(385.135 139.773)" fill="#0fd69e" fill-rule="evenodd"/><path d="M321.579,627.231c-4.278,32.637,8.234,109.034,19.992,117.778H329.053s-19.789-47.576-14.2-117.852Z" transform="translate(262.194 154.697)" fill="#111d22" fill-rule="evenodd"/><path d="M317.87,792.411H434.522v-.292a8.274,8.274,0,0,0-7.457-8.228c-14.166-1.392-30.328-2.8-44.483-4.189l0-47.728a6.081,6.081,0,0,0,2.9-5.186V685.833H366.914v40.958a6.079,6.079,0,0,0,2.9,5.182v0l0,47.728c-14.155,1.392-30.317,2.8-44.483,4.189a8.276,8.276,0,0,0-7.457,8.228Z" transform="translate(266.655 219.969)" fill="#222f33" fill-rule="evenodd"/><path d="M336.791,748.7a11,11,0,1,1-11-11,11,11,0,0,1,11,11Z" transform="translate(263.229 277.668)" fill="#111d22" fill-rule="evenodd"/><path d="M425.33,677.679H326.723a7.368,7.368,0,0,0-7.364,7.368h0V694.9H432.7v-9.857a7.369,7.369,0,0,0-7.368-7.368Z" transform="translate(268.312 210.899)" fill="#111d22" fill-rule="evenodd"/><path d="M365.757,748.7a11,11,0,1,0,11-11,11,11,0,0,0-11,11Z" transform="translate(319.926 277.668)" fill="#111d22" fill-rule="evenodd"/><path d="M336.709,664.471c-5.663,13.864-12.968,37.481-6.369,45.075,12.438,14.318,112.059,6.688,104.326,19.876-9.409,16.042-15.835,36.188-26.568,84.93l19.407,4.356c8.192-14.293,52.331-96.162,45.066-116.758-3.929-11.141-69.615-30.655-87.917-35.163A126.638,126.638,0,0,0,386.025,645c-9.74.63-29.8,3.4-46.91,3.063C339.751,652.443,338.654,659.706,336.709,664.471Z" transform="translate(277.619 174.545)" fill="#27365c" fill-rule="evenodd"/><path d="M379.513,732.9a56.563,56.563,0,0,1-11.219-2.237c-.885,7.357-8.952,23.344-6.449,32.3,7.666,1.87,7.93-.989,11-.543,4.945,2.767,12.123,8.61,36.439,2.237C408.246,753.607,377.3,761.67,379.513,732.9Z" transform="translate(315.04 269.842)" fill="#39548f" fill-rule="evenodd"/><path d="M424.121,857.68l-1.172-16.331h0l1.172,16.331Zm-1.2-16.739h0l-1.464-20.4h0l1.464,20.4Zm-1.493-20.807h0l-5.249-72.99h.011l5.241,72.99Zm-5.275-73.4h-.011l-7.778-108.194-.454-6.179h.023l.049.644Z" transform="translate(366.815 160.488)" fill="#fff" fill-rule="evenodd"/><g transform="translate(664.315 792.684)"><g clip-path="url(#e)"><rect width="239.967" height="156.204" transform="translate(0 88.481)" fill="#7d9dd8"/><rect width="239.967" height="0.463" transform="translate(0 88.172)" fill="#7d9dd8"/><rect width="239.967" height="0.463" transform="translate(0 87.863)" fill="#7d9dd8"/><rect width="239.967" height="0.463" transform="translate(0 87.554)" fill="#7c9cd8"/><rect width="239.967" height="0.463" transform="translate(0 87.245)" fill="#7c9cd7"/><rect width="239.967" height="0.463" transform="translate(0 86.936)" fill="#7c9cd7"/><rect width="239.967" height="0.463" transform="translate(0 86.627)" fill="#7c9cd7"/><rect width="239.967" height="0.463" transform="translate(0 86.318)" fill="#7c9cd7"/><rect width="239.967" height="0.463" transform="translate(0 86.009)" fill="#7b9bd7"/><rect width="239.967" height="0.463" transform="translate(0 85.7)" fill="#7b9bd7"/><rect width="239.967" height="0.463" transform="translate(0 85.391)" fill="#7b9bd6"/><rect width="239.967" height="0.463" transform="translate(0 85.082)" fill="#7b9bd6"/><rect width="239.967" height="0.463" transform="translate(0 84.773)" fill="#7a9bd6"/><rect width="239.967" height="0.463" transform="translate(0 84.464)" fill="#7a9ad6"/><rect width="239.967" height="0.463" transform="translate(0 84.155)" fill="#7a9ad6"/><rect width="239.967" height="0.463" transform="translate(0 83.846)" fill="#7a9ad6"/><rect width="239.967" height="0.463" transform="translate(0 83.537)" fill="#7a9ad5"/><rect width="239.967" height="0.463" transform="translate(0 83.228)" fill="#799ad5"/><rect width="239.967" height="0.463" transform="translate(0 82.919)" fill="#799ad5"/><rect width="239.967" height="0.463" transform="translate(0 82.61)" fill="#7999d5"/><rect width="239.967" height="0.463" transform="translate(0 82.301)" fill="#7999d5"/><rect width="239.967" height="0.463" transform="translate(0 81.992)" fill="#7999d5"/><rect width="239.967" height="0.463" transform="translate(0 81.683)" fill="#7899d4"/><rect width="239.967" height="0.463" transform="translate(0 81.374)" fill="#7899d4"/><rect width="239.967" height="0.463" transform="translate(0 81.065)" fill="#7898d4"/><rect width="239.967" height="0.463" transform="translate(0 80.756)" fill="#7898d4"/><rect width="239.967" height="0.463" transform="translate(0 80.447)" fill="#7798d4"/><rect width="239.967" height="0.463" transform="translate(0 80.138)" fill="#7798d4"/><rect width="239.967" height="0.463" transform="translate(0 79.83)" fill="#7798d3"/><rect width="239.967" height="0.463" transform="translate(0 79.521)" fill="#7797d3"/><rect width="239.967" height="0.463" transform="translate(0 79.212)" fill="#7797d3"/><rect width="239.967" height="0.463" transform="translate(0 78.903)" fill="#7697d3"/><rect width="239.967" height="0.463" transform="translate(0 78.594)" fill="#7697d3"/><rect width="239.967" height="0.463" transform="translate(0 78.285)" fill="#7697d3"/><rect width="239.967" height="0.463" transform="translate(0 77.976)" fill="#7696d2"/><rect width="239.967" height="0.463" transform="translate(0 77.667)" fill="#7696d2"/><rect width="239.967" height="0.463" transform="translate(0 77.358)" fill="#7596d2"/><rect width="239.967" height="0.463" transform="translate(0 77.049)" fill="#7596d2"/><rect width="239.967" height="0.463" transform="translate(0 76.74)" fill="#7596d2"/><rect width="239.967" height="0.463" transform="translate(0 76.431)" fill="#7595d2"/><rect width="239.967" height="0.463" transform="translate(0 76.122)" fill="#7595d1"/><rect width="239.967" height="0.463" transform="translate(0 75.813)" fill="#7495d1"/><rect width="239.967" height="0.463" transform="translate(0 75.504)" fill="#7495d1"/><rect width="239.967" height="0.463" transform="translate(0 75.195)" fill="#7495d1"/><rect width="239.967" height="0.463" transform="translate(0 74.886)" fill="#7494d1"/><rect width="239.967" height="0.463" transform="translate(0 74.577)" fill="#7394d1"/><rect width="239.967" height="0.463" transform="translate(0 74.268)" fill="#7394d0"/><rect width="239.967" height="0.463" transform="translate(0 73.959)" fill="#7394d0"/><rect width="239.967" height="0.464" transform="translate(0 73.65)" fill="#7394d0"/><rect width="239.967" height="0.463" transform="translate(0 73.341)" fill="#7394d0"/><rect width="239.967" height="0.463" transform="translate(0 73.032)" fill="#7293d0"/><rect width="239.967" height="0.463" transform="translate(0 72.723)" fill="#7293d0"/><rect width="239.967" height="0.463" transform="translate(0 72.414)" fill="#7293cf"/><rect width="239.967" height="0.463" transform="translate(0 72.105)" fill="#7293cf"/><rect width="239.967" height="0.463" transform="translate(0 71.796)" fill="#7293cf"/><rect width="239.967" height="0.463" transform="translate(0 71.488)" fill="#7192cf"/><rect width="239.967" height="0.463" transform="translate(0 71.179)" fill="#7192cf"/><rect width="239.967" height="0.463" transform="translate(0 70.869)" fill="#7192cf"/><rect width="239.967" height="0.463" transform="translate(0 70.561)" fill="#7192ce"/><rect width="239.967" height="0.463" transform="translate(0 70.252)" fill="#7092ce"/><rect width="239.967" height="0.463" transform="translate(0 69.943)" fill="#7091ce"/><rect width="239.967" height="0.463" transform="translate(0 69.634)" fill="#7091ce"/><rect width="239.967" height="0.463" transform="translate(0 69.325)" fill="#7091ce"/><rect width="239.967" height="0.463" transform="translate(0 69.016)" fill="#7091ce"/><rect width="239.967" height="0.463" transform="translate(0 68.707)" fill="#6f91cd"/><rect width="239.967" height="0.463" transform="translate(0 68.398)" fill="#6f90cd"/><rect width="239.967" height="0.463" transform="translate(0 68.089)" fill="#6f90cd"/><rect width="239.967" height="0.463" transform="translate(0 67.78)" fill="#6f90cd"/><rect width="239.967" height="0.463" transform="translate(0 67.472)" fill="#6f90cd"/><rect width="239.967" height="0.463" transform="translate(0 67.162)" fill="#6e90cd"/><rect width="239.967" height="0.463" transform="translate(0 66.853)" fill="#6e8fcc"/><rect width="239.967" height="0.463" transform="translate(0 66.544)" fill="#6e8fcc"/><rect width="239.967" height="0.463" transform="translate(0 66.235)" fill="#6e8fcc"/><rect width="239.967" height="0.463" transform="translate(0 65.926)" fill="#6e8fcc"/><rect width="239.967" height="0.463" transform="translate(0 65.618)" fill="#6d8fcc"/><rect width="239.967" height="0.463" transform="translate(0 65.309)" fill="#6d8ecc"/><rect width="239.967" height="0.463" transform="translate(0 64.999)" fill="#6d8ecb"/><rect width="239.967" height="0.463" transform="translate(0 64.691)" fill="#6d8ecb"/><rect width="239.967" height="0.463" transform="translate(0 64.382)" fill="#6c8ecb"/><rect width="239.967" height="0.463" transform="translate(0 64.073)" fill="#6c8ecb"/><rect width="239.967" height="0.463" transform="translate(0 63.764)" fill="#6c8dcb"/><rect width="239.967" height="0.463" transform="translate(0 63.455)" fill="#6c8dcb"/><rect width="239.967" height="0.463" transform="translate(0 63.146)" fill="#6c8dca"/><rect width="239.967" height="0.463" transform="translate(0 62.837)" fill="#6b8dca"/><rect width="239.967" height="0.463" transform="translate(0 62.528)" fill="#6b8dca"/><rect width="239.967" height="0.463" transform="translate(0 62.219)" fill="#6b8dca"/><rect width="239.967" height="0.463" transform="translate(0 61.91)" fill="#6b8cca"/><rect width="239.967" height="0.463" transform="translate(0 61.601)" fill="#6b8cca"/><rect width="239.967" height="0.463" transform="translate(0 61.292)" fill="#6a8cc9"/><rect width="239.967" height="0.463" transform="translate(0 60.983)" fill="#6a8cc9"/><rect width="239.967" height="0.463" transform="translate(0 60.674)" fill="#6a8cc9"/><rect width="239.967" height="0.463" transform="translate(0 60.365)" fill="#6a8bc9"/><rect width="239.967" height="0.463" transform="translate(0 60.056)" fill="#698bc9"/><rect width="239.967" height="0.463" transform="translate(0 59.747)" fill="#698bc9"/><rect width="239.967" height="0.463" transform="translate(0 59.438)" fill="#698bc8"/><rect width="239.967" height="0.464" transform="translate(0 59.129)" fill="#698bc8"/><rect width="239.967" height="0.463" transform="translate(0 58.82)" fill="#698ac8"/><rect width="239.967" height="0.463" transform="translate(0 58.511)" fill="#688ac8"/><rect width="239.967" height="0.463" transform="translate(0 58.202)" fill="#688ac8"/><rect width="239.967" height="0.463" transform="translate(0 57.893)" fill="#688ac8"/><rect width="239.967" height="0.463" transform="translate(0 57.584)" fill="#688ac7"/><rect width="239.967" height="0.463" transform="translate(0 57.275)" fill="#6889c7"/><rect width="239.967" height="0.463" transform="translate(0 56.966)" fill="#6789c7"/><rect width="239.967" height="0.463" transform="translate(0 56.657)" fill="#6789c7"/><rect width="239.967" height="0.463" transform="translate(0 56.348)" fill="#6789c7"/><rect width="239.967" height="0.463" transform="translate(0 56.039)" fill="#6789c7"/><rect width="239.967" height="0.463" transform="translate(0 55.73)" fill="#6788c6"/><rect width="239.967" height="0.463" transform="translate(0 55.421)" fill="#6688c6"/><rect width="239.967" height="0.463" transform="translate(0 55.113)" fill="#6688c6"/><rect width="239.967" height="0.463" transform="translate(0 54.804)" fill="#6688c6"/><rect width="239.967" height="0.463" transform="translate(0 54.495)" fill="#6688c6"/><rect width="239.967" height="0.464" transform="translate(0 54.186)" fill="#6587c6"/><rect width="239.967" height="0.463" transform="translate(0 53.877)" fill="#6587c5"/><rect width="239.967" height="0.463" transform="translate(0 53.568)" fill="#6587c5"/><rect width="239.967" height="0.463" transform="translate(0 53.259)" fill="#6587c5"/><rect width="239.967" height="0.463" transform="translate(0 52.95)" fill="#6587c5"/><rect width="239.967" height="0.463" transform="translate(0 52.641)" fill="#6487c5"/><rect width="239.967" height="0.463" transform="translate(0 52.332)" fill="#6486c5"/><rect width="239.967" height="0.463" transform="translate(0 52.023)" fill="#6486c4"/><rect width="239.967" height="0.463" transform="translate(0 51.714)" fill="#6486c4"/><rect width="239.967" height="0.463" transform="translate(0 51.405)" fill="#6486c4"/><rect width="239.967" height="0.463" transform="translate(0 51.096)" fill="#6386c4"/><rect width="239.967" height="0.463" transform="translate(0 50.787)" fill="#6385c4"/><rect width="239.967" height="0.463" transform="translate(0 50.478)" fill="#6385c4"/><rect width="239.967" height="0.463" transform="translate(0 50.169)" fill="#6385c3"/><rect width="239.967" height="0.463" transform="translate(0 49.86)" fill="#6285c3"/><rect width="239.967" height="0.463" transform="translate(0 49.551)" fill="#6285c3"/><rect width="239.967" height="0.463" transform="translate(0 49.242)" fill="#6284c3"/><rect width="239.967" height="0.463" transform="translate(0 48.933)" fill="#6284c3"/><rect width="239.967" height="0.463" transform="translate(0 48.624)" fill="#6284c3"/><rect width="239.967" height="0.463" transform="translate(0 48.315)" fill="#6184c2"/><rect width="239.967" height="0.463" transform="translate(0 48.006)" fill="#6184c2"/><rect width="239.967" height="0.463" transform="translate(0 47.697)" fill="#6183c2"/><rect width="239.967" height="0.463" transform="translate(0 47.388)" fill="#6183c2"/><rect width="239.967" height="0.463" transform="translate(0 47.079)" fill="#6183c2"/><rect width="239.967" height="0.463" transform="translate(0 46.77)" fill="#6083c2"/><rect width="239.967" height="0.463" transform="translate(0 46.462)" fill="#6083c1"/><rect width="239.967" height="0.463" transform="translate(0 46.153)" fill="#6082c1"/><rect width="239.967" height="0.463" transform="translate(0 45.843)" fill="#6082c1"/><rect width="239.967" height="0.463" transform="translate(0 45.535)" fill="#6082c1"/><rect width="239.967" height="0.463" transform="translate(0 45.226)" fill="#5f82c1"/><rect width="239.967" height="0.463" transform="translate(0 44.917)" fill="#5f82c1"/><rect width="239.967" height="0.463" transform="translate(0 44.608)" fill="#5f81c0"/><rect width="239.967" height="0.463" transform="translate(0 44.299)" fill="#5f81c0"/><rect width="239.967" height="0.463" transform="translate(0 43.99)" fill="#5e81c0"/><rect width="239.967" height="0.463" transform="translate(0 43.681)" fill="#5e81c0"/><rect width="239.967" height="0.463" transform="translate(0 43.372)" fill="#5e81c0"/><rect width="239.967" height="0.463" transform="translate(0 43.063)" fill="#5e81c0"/><rect width="239.967" height="0.463" transform="translate(0 42.754)" fill="#5e80bf"/><rect width="239.967" height="0.463" transform="translate(0 42.445)" fill="#5d80bf"/><rect width="239.967" height="0.463" transform="translate(0 42.136)" fill="#5d80bf"/><rect width="239.967" height="0.463" transform="translate(0 41.827)" fill="#5d80bf"/><rect width="239.967" height="0.463" transform="translate(0 41.518)" fill="#5d80bf"/><rect width="239.967" height="0.463" transform="translate(0 41.209)" fill="#5d80bf"/><rect width="239.967" height="0.463" transform="translate(0 40.9)" fill="#5c80be"/><rect width="239.967" height="0.463" transform="translate(0 40.592)" fill="#5c80be"/><rect width="239.967" height="0.463" transform="translate(0 40.283)" fill="#5c80be"/><rect width="239.967" height="0.463" transform="translate(0 39.973)" fill="#5c80be"/><rect width="239.967" height="0.463" transform="translate(0 39.665)" fill="#5b7fbe"/><rect width="239.967" height="0.463" transform="translate(0 39.356)" fill="#5b7fbe"/><rect width="239.967" height="0.463" transform="translate(0 39.047)" fill="#5b7fbd"/><rect width="239.967" height="0.463" transform="translate(0 38.738)" fill="#5b7fbd"/><rect width="239.967" height="0.463" transform="translate(0 38.429)" fill="#5b7fbd"/><rect width="239.967" height="0.463" transform="translate(0 38.12)" fill="#5a7ebd"/><rect width="239.967" height="0.463" transform="translate(0 37.811)" fill="#5a7ebd"/><rect width="239.967" height="0.463" transform="translate(0 37.502)" fill="#5a7ebd"/><rect width="239.967" height="0.463" transform="translate(0 37.193)" fill="#5a7ebc"/><rect width="239.967" height="0.463" transform="translate(0 36.884)" fill="#5a7ebc"/><rect width="239.967" height="0.463" transform="translate(0 36.575)" fill="#597dbc"/><rect width="239.967" height="0.463" transform="translate(0 36.266)" fill="#597dbc"/><rect width="239.967" height="0.463" transform="translate(0 35.957)" fill="#597dbc"/><rect width="239.967" height="0.463" transform="translate(0 35.648)" fill="#597dbc"/><rect width="239.967" height="0.463" transform="translate(0 35.339)" fill="#587dbb"/><rect width="239.967" height="0.463" transform="translate(0 35.03)" fill="#587cbb"/><rect width="239.967" height="0.463" transform="translate(0 34.721)" fill="#587cbb"/><rect width="239.967" height="0.463" transform="translate(0 34.412)" fill="#587cbb"/><rect width="239.967" height="0.463" transform="translate(0 34.103)" fill="#587cbb"/><rect width="239.967" height="0.463" transform="translate(0 33.794)" fill="#577cbb"/><rect width="239.967" height="0.463" transform="translate(0 33.485)" fill="#577cba"/><rect width="239.967" height="0.463" transform="translate(0 33.176)" fill="#577bba"/><rect width="239.967" height="0.463" transform="translate(0 32.867)" fill="#577bba"/><rect width="239.967" height="0.463" transform="translate(0 32.558)" fill="#577bba"/><rect width="239.967" height="0.463" transform="translate(0 32.249)" fill="#567bba"/><rect width="239.967" height="0.463" transform="translate(0 31.94)" fill="#567bba"/><rect width="239.967" height="0.463" transform="translate(0 31.631)" fill="#567ab9"/><rect width="239.967" height="0.463" transform="translate(0 31.322)" fill="#567ab9"/><rect width="239.967" height="0.463" transform="translate(0 31.013)" fill="#567ab9"/><rect width="239.967" height="0.463" transform="translate(0 30.705)" fill="#557ab9"/><rect width="239.967" height="0.463" transform="translate(0 30.396)" fill="#557ab9"/><rect width="239.967" height="0.463" transform="translate(0 30.087)" fill="#5579b9"/><rect width="239.967" height="0.463" transform="translate(0 29.778)" fill="#5579b8"/><rect width="239.967" height="0.463" transform="translate(0 29.469)" fill="#5479b8"/><rect width="239.967" height="0.463" transform="translate(0 29.16)" fill="#5479b8"/><rect width="239.967" height="0.463" transform="translate(0 28.851)" fill="#5479b8"/><rect width="239.967" height="0.463" transform="translate(0 28.542)" fill="#5478b8"/><rect width="239.967" height="0.463" transform="translate(0 28.233)" fill="#5478b8"/><rect width="239.967" height="0.463" transform="translate(0 27.924)" fill="#5378b7"/><rect width="239.967" height="0.463" transform="translate(0 27.615)" fill="#5378b7"/><rect width="239.967" height="0.463" transform="translate(0 27.306)" fill="#5378b7"/><rect width="239.967" height="0.463" transform="translate(0 26.997)" fill="#5377b7"/><rect width="239.967" height="0.463" transform="translate(0 26.688)" fill="#5377b7"/><rect width="239.967" height="0.463" transform="translate(0 26.379)" fill="#5277b7"/><rect width="239.967" height="0.463" transform="translate(0 26.07)" fill="#5277b6"/><rect width="239.967" height="0.463" transform="translate(0 25.761)" fill="#5277b6"/><rect width="239.967" height="0.463" transform="translate(0 25.452)" fill="#5276b6"/><rect width="239.967" height="0.463" transform="translate(0 25.143)" fill="#5176b6"/><rect width="239.967" height="0.463" transform="translate(0 24.834)" fill="#5176b6"/><rect width="239.967" height="0.463" transform="translate(0 24.525)" fill="#5176b6"/><rect width="239.967" height="0.463" transform="translate(0 24.216)" fill="#5176b5"/><rect width="239.967" height="0.463" transform="translate(0 23.907)" fill="#5176b5"/><rect width="239.967" height="0.463" transform="translate(0 23.598)" fill="#5075b5"/><rect width="239.967" height="0.463" transform="translate(0 23.289)" fill="#5075b5"/><rect width="239.967" height="0.463" transform="translate(0 22.98)" fill="#5075b5"/><rect width="239.967" height="0.463" transform="translate(0 22.671)" fill="#5075b5"/><rect width="239.967" height="0.463" transform="translate(0 22.362)" fill="#5075b4"/><rect width="239.967" height="0.463" transform="translate(0 22.053)" fill="#4f74b4"/><rect width="239.967" height="0.463" transform="translate(0 21.744)" fill="#4f74b4"/><rect width="239.967" height="0.463" transform="translate(0 21.435)" fill="#4f74b4"/><rect width="239.967" height="0.463" transform="translate(0 21.126)" fill="#4e73b3"/><rect width="239.967" height="0.463" transform="translate(0 20.817)" fill="#4d72b3"/><rect width="239.967" height="0.463" transform="translate(0 20.508)" fill="#4c72b2"/><rect width="239.967" height="0.463" transform="translate(0 20.2)" fill="#4c71b1"/><rect width="239.967" height="0.463" transform="translate(0 19.891)" fill="#4b70b1"/><rect width="239.967" height="0.463" transform="translate(0 19.582)" fill="#4a6fb0"/><rect width="239.967" height="0.463" transform="translate(0 19.273)" fill="#496fb0"/><rect width="239.967" height="0.463" transform="translate(0 18.964)" fill="#496eaf"/><rect width="239.967" height="0.463" transform="translate(0 18.655)" fill="#486dae"/><rect width="239.967" height="0.463" transform="translate(0 18.346)" fill="#476dae"/><rect width="239.967" height="0.463" transform="translate(0 18.037)" fill="#466cad"/><rect width="239.967" height="0.463" transform="translate(0 17.728)" fill="#456bad"/><rect width="239.967" height="0.463" transform="translate(0 17.419)" fill="#456aac"/><rect width="239.967" height="0.463" transform="translate(0 17.11)" fill="#446aab"/><rect width="239.967" height="0.463" transform="translate(0 16.801)" fill="#4369ab"/><rect width="239.967" height="0.463" transform="translate(0 16.492)" fill="#4268aa"/><rect width="239.967" height="0.463" transform="translate(0 16.184)" fill="#4168aa"/><rect width="239.967" height="0.463" transform="translate(0 15.874)" fill="#4167a9"/><rect width="239.967" height="0.463" transform="translate(0 15.565)" fill="#4066a8"/><rect width="239.967" height="0.463" transform="translate(0 15.256)" fill="#3f65a8"/><rect width="239.967" height="0.463" transform="translate(0 14.947)" fill="#3e65a7"/><rect width="239.967" height="0.463" transform="translate(0 14.638)" fill="#3e64a7"/><rect width="239.967" height="0.463" transform="translate(0 14.33)" fill="#3d63a6"/><rect width="239.967" height="0.463" transform="translate(0 14.021)" fill="#3c62a5"/><rect width="239.967" height="0.463" transform="translate(0 13.712)" fill="#3b62a5"/><rect width="239.967" height="0.463" transform="translate(0 13.403)" fill="#3a61a4"/><rect width="239.967" height="0.463" transform="translate(0 13.094)" fill="#3a60a4"/><rect width="239.967" height="0.463" transform="translate(0 12.785)" fill="#3960a3"/><rect width="239.967" height="0.463" transform="translate(0 12.476)" fill="#385fa2"/><rect width="239.967" height="0.463" transform="translate(0 12.167)" fill="#375ea2"/><rect width="239.967" height="0.463" transform="translate(0 11.858)" fill="#365da1"/><rect width="239.967" height="0.463" transform="translate(0 11.549)" fill="#365da1"/><rect width="239.967" height="0.463" transform="translate(0 11.24)" fill="#355ca0"/><rect width="239.967" height="0.463" transform="translate(0 10.931)" fill="#345ba0"/><rect width="239.967" height="0.463" transform="translate(0 10.622)" fill="#345b9f"/><rect width="239.967" height="0.463" transform="translate(0 10.313)" fill="#335a9f"/><rect width="239.967" height="0.463" transform="translate(0 10.004)" fill="#335a9e"/><rect width="239.967" height="10.158" transform="translate(0 0.001)" fill="#32599e"/></g></g><path d="M396.674,639.273l-.044-.652h0Z" transform="translate(354.269 167.449)" fill="#bfbfbe" fill-rule="evenodd"/><path d="M361.352,644.272h-.027l.316-5.651h.006Z" transform="translate(314.995 167.449)" fill="#bfbfbe" fill-rule="evenodd"/><path d="M361.342,644.272h-.006l.3-5.651h.01Z" transform="translate(315.008 167.449)" fill="#0d1619" fill-rule="evenodd"/><path d="M357.963,642.456c-8.851,0-8.614-12.465,0-12.465H607.182c8.781,0,8.581,12.468,0,12.468Z" transform="translate(303.969 157.85)" fill="#7d9dd8" fill-rule="evenodd"/><path d="M450.959,647.333l-3.688-12.463c-46.2,17.558-81.8,11.05-96.736-25.224-6.16-14.952-28.9-2.3-22.36,15.116C349.823,682.4,423.563,667.718,450.959,647.333Z" transform="translate(276.816 127.844)" fill="#39548f" fill-rule="evenodd"/><path d="M316.623,653.752c-19.5,14.58,18.847,47.912,49.162,11.3,8.771-12.381,4.776-41.7-.872-55.491-6.747,2.419-8.619-15.49.082-10.932,2.719-13.317,11.9-12.009,23.908-13.393-.4-10.1-5.416-18.631-15.657-20.45C315.668,554.562,350.459,628.456,316.623,653.752Z" transform="translate(259.368 84.24)" fill="#742aae" fill-rule="evenodd"/><g transform="translate(734.621 574.983)"><path d="M557.81,529.226H402.232a13.356,13.356,0,0,0-13.308,13.31V654.325l22.5-17.588H557.81a13.356,13.356,0,0,0,13.31-13.308V542.536A13.348,13.348,0,0,0,557.81,529.226Z" transform="translate(-388.924 -529.226)" fill="#0fd69e" fill-rule="evenodd"/><path d="M407.641,560.359a13.467,13.467,0,1,0-13.465-13.469A13.494,13.494,0,0,0,407.641,560.359Z" transform="translate(-383.082 -524.554)" fill="#fff" fill-rule="evenodd"/><rect width="121.662" height="12.811" rx="3.032" transform="translate(43.975 11.471)" fill="#fff"/><path d="M1.192,0H105.586a1.193,1.193,0,0,1,1.193,1.193V3.846a1.192,1.192,0,0,1-1.192,1.192H1.192A1.192,1.192,0,0,1,0,3.846V1.192A1.192,1.192,0,0,1,1.192,0Z" transform="translate(51.417 33.055)" fill="#fff"/><path d="M1.192,0H105.586a1.193,1.193,0,0,1,1.193,1.193V3.846a1.192,1.192,0,0,1-1.192,1.192H1.192A1.192,1.192,0,0,1,0,3.846V1.192A1.192,1.192,0,0,1,1.192,0Z" transform="translate(51.417 46.867)" fill="#fff"/><path d="M1.192,0H105.586a1.192,1.192,0,0,1,1.192,1.192V3.846a1.193,1.193,0,0,1-1.193,1.193H1.192A1.192,1.192,0,0,1,0,3.846V1.192A1.192,1.192,0,0,1,1.192,0Z" transform="translate(51.417 60.678)" fill="#fff"/><path d="M1.193,0H105.586a1.193,1.193,0,0,1,1.193,1.193V3.846a1.192,1.192,0,0,1-1.192,1.192H1.192A1.192,1.192,0,0,1,0,3.846V1.193A1.193,1.193,0,0,1,1.193,0Z" transform="translate(51.417 74.756)" fill="#fff"/><path d="M1.192,0H105.586a1.192,1.192,0,0,1,1.192,1.192V3.846a1.193,1.193,0,0,1-1.193,1.193H1.193A1.193,1.193,0,0,1,0,3.846V1.192A1.192,1.192,0,0,1,1.192,0Z" transform="translate(51.417 88.833)" fill="#fff"/></g><path d="M324.489,783.619,208.7,781.27c30.577-3.8,101.385,12.489,101.385-191.157h14.4Z" transform="translate(145.216 113.489)" fill="#742aae" fill-rule="evenodd"/><path d="M180.357,549.233c194.769-165.7,350.165,121.208,212.3,94.425s59.57-278.93,238.914-79.216" transform="translate(113.683)" fill="none" stroke="#837dbd" stroke-linecap="round" stroke-miterlimit="22.926" stroke-width="4" stroke-dasharray="10 14" fill-rule="evenodd"/><path d="M434.329,632.3c-5-2.719-8.6-8.923-3.95-19.891,3.164-7.467,4.2-14.871,3.166-19.219,5.363,4.609,2.529,16.092,1.162,19.32C428.921,626.161,433.471,628.974,434.329,632.3Z" transform="translate(389.417 116.909)" fill="#7d9dd8" fill-rule="evenodd"/></g></svg>